<?xml version="1.0" encoding="UTF-8" standalone="no"?>
<!-- Created with Inkscape (http://www.inkscape.org/) -->

<svg
   width="32"
   height="32"
   viewBox="0 0 8.4666667 8.4666667"
   version="1.1"
   id="svg5"
   inkscape:version="1.1 (c68e22c387, 2021-05-23)"
   sodipodi:docname="S1KLogo.svg"
   xmlns:inkscape="http://www.inkscape.org/namespaces/inkscape"
   xmlns:sodipodi="http://sodipodi.sourceforge.net/DTD/sodipodi-0.dtd"
   xmlns="http://www.w3.org/2000/svg"
   xmlns:svg="http://www.w3.org/2000/svg">
  <sodipodi:namedview
     id="namedview7"
     pagecolor="#505050"
     bordercolor="#ffffff"
     borderopacity="1"
     inkscape:pageshadow="0"
     inkscape:pageopacity="0"
     inkscape:pagecheckerboard="1"
     inkscape:document-units="px"
     showgrid="false"
     inkscape:zoom="16"
     inkscape:cx="32.625"
     inkscape:cy="22.28125"
     inkscape:window-width="3440"
     inkscape:window-height="1377"
     inkscape:window-x="1912"
     inkscape:window-y="282"
     inkscape:window-maximized="1"
     inkscape:current-layer="layer1" />
  <defs
     id="defs2">
    <rect
       x="-8"
       y="-5.8125"
       width="54.3125"
       height="45.3125"
       id="rect28269" />
    <inkscape:path-effect
       effect="circle_with_radius"
       id="path-effect8074"
       is_visible="true"
       lpeversion="1" />
    <inkscape:path-effect
       effect="line_segment"
       id="path-effect7855"
       is_visible="true"
       lpeversion="1"
       end_type="open_both" />
  </defs>
  <g
     inkscape:label="Layer 1"
     inkscape:groupmode="layer"
     id="layer1">
    <g
       id="g14333"
       transform="matrix(1.4300556,0,0,1.3564193,-2.0740854,-1.3248374)"
       style="fill:#000000;fill-opacity:1">
      <path
         style="fill:#000000;fill-opacity:1;stroke-width:0.00612532"
         d="m 6.091467,4.8928 c -0.00191,0.00813 -0.00243,0.021451 -0.00115,0.029613 0.00128,0.00816 0.00284,0.00151 0.00348,-0.014773 C 6.0944306,4.891353 6.0933841,4.884675 6.091467,4.892801 Z M 6.044498,4.852204 c -0.00216,0.00386 -0.0021,0.00851 1.48e-4,0.010326 C 6.046896,4.86435 6.048656,4.86118 6.048576,4.8555 6.0484857,4.84922 6.046886,4.84793 6.044496,4.8522 Z M 5.8008118,4.6713435 c -0.00208,0.00368 -0.00231,0.00974 -5.237e-4,0.01346 0.00179,0.00372 0.00349,7.13e-4 0.00378,-0.00669 2.88e-4,-0.0074 -0.00118,-0.01045 -0.00325,-0.00677 z m 0.00992,-1.1552929 c -0.00195,0.00516 -0.00228,0.013642 -7.332e-4,0.018844 0.00155,0.0052 0.00315,9.784e-4 0.00355,-0.00939 4.033e-4,-0.010365 -8.652e-4,-0.014621 -0.00282,-0.00946 z M 5.7551934,3.1572168 c -0.00208,0.00368 -0.00231,0.00974 -5.237e-4,0.01346 0.00179,0.00372 0.00349,7.129e-4 0.00378,-0.00669 2.88e-4,-0.0074 -0.00118,-0.01045 -0.00325,-0.00677 z M 5.6430021,1.7366999 c -0.00197,0.00522 -0.00214,0.012488 -3.701e-4,0.016155 0.00177,0.00367 0.00338,-6.028e-4 0.00358,-0.00949 2.036e-4,-0.00889 -0.00124,-0.011886 -0.00321,-0.00667 z M 5.4580386,5.95516 c -0.00216,0.00386 -0.0021,0.00851 1.481e-4,0.010326 0.00224,0.00182 0.00401,-0.00135 0.00393,-0.00703 -9.03e-5,-0.00628 -0.00169,-0.00757 -0.00408,-0.0033 z M 5.4144651,2.5406296 c -0.00308,-0.013249 -0.00531,-0.00249 -0.00745,0.035956 -0.00176,0.03157 -1.497e-4,0.056305 0.00378,0.058266 0.00791,0.00394 0.010574,-0.064534 0.00367,-0.094222 z m -0.013151,0.3311207 c -0.00983,0.049205 -0.012672,0.1264389 -0.00465,0.12653 0.00438,4.98e-5 0.00773,-0.029459 0.00903,-0.079348 0.00164,-0.062867 7.225e-4,-0.072704 -0.00438,-0.047182 z M 5.3644654,1.186844 c -0.00196,0.012647 -0.0027,0.03203 -0.00163,0.043074 0.00107,0.011043 0.00267,6.96e-4 0.00357,-0.022994 8.938e-4,-0.023691 2.28e-5,-0.032726 -0.00194,-0.020079 z M 5.1635512,3.3166674 c -0.00329,0.00322 -0.010746,0.00734 -0.016565,0.00914 -0.00743,0.00231 -0.0066,0.00296 0.00282,0.00219 0.00737,-6.047e-4 0.014826,-0.00472 0.016565,-0.00914 0.00203,-0.00517 0.00103,-0.00595 -0.00282,-0.00219 z m -0.03347,-0.036942 c -0.00216,0.00386 -0.0021,0.00851 1.481e-4,0.010326 0.00225,0.00182 0.00401,-0.00135 0.00393,-0.00703 -9.03e-5,-0.00628 -0.00169,-0.00757 -0.00408,-0.0033 z m 0.010054,-0.4418531 c -0.00193,0.00668 -0.00224,0.016371 -6.972e-4,0.021538 0.00154,0.00517 0.00312,-2.969e-4 0.0035,-0.012143 3.835e-4,-0.011846 -8.791e-4,-0.016074 -0.00281,-0.0094 z m -0.018906,0.306816 c -0.00193,0.00668 -0.00224,0.016371 -6.972e-4,0.021538 0.00154,0.00517 0.00312,-2.969e-4 0.0035,-0.012143 3.836e-4,-0.011846 -8.79e-4,-0.016074 -0.00281,-0.0094 z"
         id="path14347" />
      <path
         style="fill:#000000;fill-opacity:1;stroke-width:0.00612532"
         d="m 6.6397603,3.6453214 c -0.00787,0.00527 -0.014357,0.010798 -0.014415,0.012279 -5.76e-5,0.00148 0.00633,-0.00162 0.014205,-0.00689 0.00787,-0.00527 0.014357,-0.010798 0.014415,-0.012279 5.76e-5,-0.00148 -0.00633,0.00162 -0.014205,0.00689 z M 6.0232269,4.4913893 c -0.010787,-0.00682 -0.011041,-0.00664 -0.00271,0.002 0.00875,0.00907 0.01436,0.011989 0.014532,0.00756 4.35e-5,-0.00112 -0.00528,-0.00542 -0.011823,-0.00956 z M 5.8817872,4.8580012 c -0.013408,-1.523e-4 -0.018937,8.934e-4 -0.012285,0.00232 0.00665,0.00143 0.017622,0.00156 0.024379,2.771e-4 0.00676,-0.00128 0.00131,-0.00245 -0.012094,-0.0026 z m -0.035885,0.1159587 c -0.024871,-0.00128 -0.045284,-5.038e-4 -0.045362,0.00172 -7.95e-5,0.00222 0.020231,0.00427 0.045133,0.00455 0.024902,2.83e-4 0.045315,-4.902e-4 0.045362,-0.00172 4.78e-5,-0.00123 -0.020262,-0.00328 -0.045133,-0.00455 z m -0.046087,-0.280745 c -0.00216,0.00386 -0.0021,0.00851 1.481e-4,0.010326 0.00224,0.00182 0.00401,-0.00135 0.00393,-0.00703 -9.03e-5,-0.00628 -0.00169,-0.00757 -0.00408,-0.0033 z m -0.17085,-2.2029627 c -0.011497,-2.07e-5 -0.015403,0.00114 -0.00868,0.00258 0.00672,0.00144 0.016131,0.00146 0.020904,3.77e-5 0.00477,-0.00142 -7.283e-4,-0.0026 -0.012226,-0.00262 z M 5.3941454,5.6309068 c -0.00208,0.00368 -0.00231,0.00974 -5.237e-4,0.01346 0.00179,0.00372 0.00349,7.13e-4 0.00378,-0.00669 2.88e-4,-0.0074 -0.00118,-0.01045 -0.00325,-0.00677 z m 0.048394,-3.6327456 c -0.013408,-1.524e-4 -0.018937,8.933e-4 -0.012285,0.00232 0.00665,0.00143 0.017622,0.00156 0.024379,2.77e-4 0.00676,-0.00128 0.00131,-0.00245 -0.012094,-0.0026 z m 0.026061,-0.8021964 c -0.00204,0.017012 -0.00313,0.044874 -0.00241,0.061917 7.198e-4,0.017043 0.00239,0.00312 0.00372,-0.03093 0.00132,-0.034055 7.36e-4,-0.047999 -0.00131,-0.030987 z m -0.329406,1.6741534 c -0.00208,0.00368 -0.00231,0.00974 -5.237e-4,0.01346 0.00179,0.00372 0.00349,7.13e-4 0.00378,-0.00669 2.88e-4,-0.0074 -0.00118,-0.01045 -0.00325,-0.00677 z m -0.018906,0.3068161 c -0.00208,0.00368 -0.00231,0.00974 -5.237e-4,0.01346 0.00179,0.00372 0.00349,7.129e-4 0.00378,-0.00669 2.881e-4,-0.0074 -0.00118,-0.01045 -0.00325,-0.00677 z"
         id="path14345" />
      <path
         style="fill:#000000;fill-opacity:1;stroke-width:0.00612532"
         d="m 6.6110605,3.6665413 c -0.00787,0.00527 -0.014357,0.010798 -0.014415,0.012279 -5.76e-5,0.00148 0.00633,-0.00162 0.014205,-0.00689 0.00787,-0.00527 0.014357,-0.010798 0.014415,-0.012279 5.76e-5,-0.00148 -0.00633,0.00162 -0.014205,0.00689 z m -0.8118732,1.042826 c -0.00216,0.00386 -0.0021,0.00851 1.48e-4,0.010326 0.00225,0.00182 0.00401,-0.00135 0.00393,-0.00703 -9.03e-5,-0.00628 -0.00169,-0.00757 -0.00408,-0.0033 z M 5.7539365,3.1895215 c -0.00208,0.00368 -0.00231,0.00974 -5.236e-4,0.01346 0.00179,0.00372 0.00349,7.13e-4 0.00378,-0.00669 2.88e-4,-0.0074 -0.00118,-0.01045 -0.00325,-0.00677 z m -0.25386,-1.8642194 c -0.011497,-2.07e-5 -0.015403,0.00114 -0.00868,0.00258 0.00672,0.00144 0.016131,0.00146 0.020904,3.83e-5 0.00477,-0.00142 -7.283e-4,-0.0026 -0.012226,-0.00262 z m -0.3438103,1.281408 c -0.00216,0.00386 -0.0021,0.00851 1.481e-4,0.010326 0.00225,0.00182 0.00401,-0.00135 0.00393,-0.00703 -9.03e-5,-0.00628 -0.00169,-0.00757 -0.00408,-0.0033 z m -0.018435,0.290388 c -0.00193,0.00668 -0.00224,0.016371 -6.972e-4,0.021538 0.00154,0.00517 0.00312,-2.969e-4 0.0035,-0.012143 3.836e-4,-0.011846 -8.79e-4,-0.016074 -0.00281,-0.0094 z m -0.018906,0.306816 c -0.00193,0.00668 -0.00224,0.016371 -6.972e-4,0.021538 0.00154,0.00517 0.00312,-2.969e-4 0.0035,-0.012143 3.835e-4,-0.011846 -8.791e-4,-0.016074 -0.00281,-0.0094 z m -0.032544,0.5341781 c -0.00151,-1.72e-5 -0.00429,0.00944 -0.00617,0.021023 -0.00188,0.01158 -9.684e-4,0.019931 0.00203,0.018558 0.00546,-0.0025 0.00933,-0.039522 0.00414,-0.039581 z"
         id="path14343" />
      <path
         style="fill:#000000;fill-opacity:1;stroke-width:0.00612532"
         d="m 7.0491259,3.9596976 c -0.013799,0.00989 -0.025137,0.019199 -0.025194,0.02068 -5.76e-5,0.00148 0.011186,-0.0054 0.024985,-0.015296 0.013799,-0.00989 0.025137,-0.019199 0.025194,-0.02068 5.76e-5,-0.00148 -0.011186,0.0054 -0.024985,0.015296 z m -0.035022,0.026534 c -0.00145,-1.64e-5 -0.0071,0.00416 -0.012556,0.00928 -0.009,0.00844 -0.00876,0.00863 0.00255,0.00206 0.011876,-0.0069 0.015738,-0.011281 0.010005,-0.011347 z M 5.7345557,1.1801344 c -0.00208,0.00368 -0.00231,0.00974 -5.237e-4,0.01346 0.00179,0.00372 0.00349,7.129e-4 0.00378,-0.00669 2.88e-4,-0.0074 -0.00118,-0.01045 -0.00325,-0.00677 z M 5.691582,1.3735602 c -0.00389,0.071798 -0.00846,0.1893069 -0.01016,0.2611302 -0.0017,0.071823 0.00149,0.013079 0.00707,-0.1305424 0.00559,-0.1436216 0.00698,-0.2023861 0.00308,-0.1305878 z M 5.66236,2.1246458 C 5.65863,2.1920018 5.65434,2.3022421 5.65283,2.3696236 5.65131,2.4370046 5.65436,2.3818956 5.65961,2.2471575 5.66485,2.1124198 5.66609,2.0572895 5.66237,2.1246458 Z M 5.3236536,1.1134231 c -0.013408,-1.524e-4 -0.018937,8.933e-4 -0.012285,0.00232 0.00665,0.00143 0.017622,0.00156 0.024379,2.77e-4 0.00676,-0.00128 0.00131,-0.00245 -0.012094,-0.0026 z M 5.1554733,2.6253197 c -0.00197,0.00522 -0.00214,0.012488 -3.707e-4,0.016155 0.00177,0.00367 0.00338,-6.028e-4 0.00358,-0.00949 2.035e-4,-0.00889 -0.00124,-0.011886 -0.00321,-0.00667 z m -0.018906,0.306816 c -0.00197,0.00522 -0.00214,0.012488 -3.707e-4,0.016155 0.00177,0.00367 0.00338,-6.028e-4 0.00358,-0.00949 2.036e-4,-0.00889 -0.00124,-0.011886 -0.00321,-0.00667 z M 5.1224495,1.1381661 c -0.00198,0.01405 -0.00288,0.037067 -0.00199,0.051149 8.876e-4,0.014082 0.00251,0.00259 0.0036,-0.025545 0.00109,-0.028132 3.683e-4,-0.039654 -0.00161,-0.025604 z"
         id="path14341" />
      <path
         style="fill:#000000;fill-opacity:1;stroke-width:0.00612532"
         d="m 6.1102854,4.5374075 c -0.013409,-1.524e-4 -0.018937,8.933e-4 -0.012285,0.00232 0.00665,0.00143 0.017622,0.00156 0.024379,2.77e-4 0.00676,-0.00128 0.00131,-0.00245 -0.012094,-0.0026 z m -0.1975789,0.063219 c -0.047888,-5.442e-4 -0.067511,9.34e-5 -0.043608,0.00142 0.023903,0.00132 0.063084,0.00177 0.087068,9.895e-4 0.023985,-7.793e-4 0.00443,-0.00186 -0.04346,-0.00241 z M 5.6462761,7.2245631 c -0.00812,1.662e-4 -0.00982,0.00142 -0.00433,0.00321 0.00497,0.00161 0.010983,0.00149 0.013367,-2.736e-4 0.00238,-0.00176 -0.00168,-0.00308 -0.00903,-0.00293 z M 5.7545636,2.9905646 c -0.00216,0.00386 -0.0021,0.00851 1.481e-4,0.010326 0.00224,0.00182 0.00402,-0.00135 0.00393,-0.00703 -9.03e-5,-0.00628 -0.00169,-0.00757 -0.00408,-0.0033 z M 5.41567,6.1485927 c -0.00216,0.00386 -0.0021,0.00851 1.481e-4,0.010326 0.00224,0.00182 0.00401,-0.00135 0.00393,-0.00703 -9.03e-5,-0.00628 -0.00169,-0.00757 -0.00408,-0.0033 z m -8.379e-4,0.021536 c -0.00216,0.00386 -0.0021,0.00851 1.481e-4,0.010326 0.00224,0.00182 0.00402,-0.00135 0.00393,-0.00703 -9.03e-5,-0.00628 -0.00169,-0.00757 -0.00408,-0.0033 z M 5.5311414,1.0270634 c -0.00193,0.00668 -0.00224,0.016371 -6.972e-4,0.021538 0.00154,0.00517 0.00312,-2.967e-4 0.0035,-0.012143 3.836e-4,-0.011846 -8.79e-4,-0.016074 -0.00281,-0.0094 z m -0.015907,0.4014034 c -0.0033,0.055705 -0.00679,0.1453504 -0.00775,0.1992127 -9.6e-4,0.053862 0.00174,0.00829 0.006,-0.101281 0.00426,-0.109567 0.00505,-0.1536363 0.00175,-0.097932 z m -0.026169,0.6726637 c -0.00329,0.055511 -0.00683,0.146368 -0.00786,0.2019047 -0.00103,0.055537 0.00167,0.010119 0.00599,-0.100929 0.00432,-0.1110476 0.00516,-0.1564867 0.00187,-0.1009757 z m -0.016153,0.433125 c -0.00287,0.00895 -0.00996,0.012252 -0.029552,0.013773 l -0.025777,0.002 0.027887,-3.253e-4 c 0.024547,-2.864e-4 0.028086,-0.00194 0.029552,-0.013773 0.00139,-0.011251 0.00105,-0.011524 -0.00211,-0.00168 z m -0.035122,0.169581 c -0.00212,0.019973 -0.00339,0.052682 -0.00283,0.072686 5.625e-4,0.020004 0.0023,0.00366 0.00385,-0.036315 0.00156,-0.039977 0.0011,-0.056344 -0.00102,-0.036371 z M 5.423562,3.0697216 c -0.00211,0.019844 -0.00344,0.053764 -0.00295,0.075378 4.852e-4,0.021614 0.00221,0.00538 0.00383,-0.03608 0.00163,-0.041458 0.00123,-0.059142 -8.821e-4,-0.039298 z M 5.3739241,2.7438462 c -0.00216,0.00386 -0.0021,0.00851 1.481e-4,0.010326 0.00224,0.00182 0.00401,-0.00135 0.00393,-0.00703 -9.03e-5,-0.00628 -0.00169,-0.00757 -0.00408,-0.0033 z m -8.379e-4,0.021536 c -0.00216,0.00386 -0.0021,0.00851 1.481e-4,0.010326 0.00224,0.00182 0.00401,-0.00135 0.00393,-0.00703 -9.03e-5,-0.00628 -0.00169,-0.00757 -0.00408,-0.0033 z m -0.242896,0.9893669 c -0.00382,-4.34e-5 -0.00748,0.015849 -0.00826,0.035816 -7.681e-4,0.019742 -2.287e-4,0.034898 0.0012,0.033679 0.00682,-0.00582 0.013274,-0.069425 0.00706,-0.069496 z m 0.024033,-1.099858 c -0.00193,0.00668 -0.00224,0.01637 -6.972e-4,0.021538 0.00154,0.00517 0.00312,-2.969e-4 0.0035,-0.012143 3.835e-4,-0.011846 -8.791e-4,-0.016074 -0.00281,-0.0094 z m -0.018906,0.306816 c -0.00193,0.00668 -0.00224,0.016371 -6.973e-4,0.021538 0.00154,0.00517 0.00312,-2.969e-4 0.0035,-0.012143 3.835e-4,-0.011846 -8.791e-4,-0.016074 -0.00281,-0.0094 z m -0.056364,0.4471788 c -0.00334,0.00247 -0.0053,0.012687 -0.00436,0.022703 0.00167,0.017762 0.00182,0.017652 0.00608,-0.00449 0.0024,-0.012487 0.00163,-0.020681 -0.00171,-0.01821 z m -0.00657,0.09608 c -0.00192,0.00664 -0.00234,0.017547 -9.427e-4,0.024229 0.0014,0.00668 0.00297,0.00125 0.00349,-0.01208 5.184e-4,-0.013326 -6.279e-4,-0.018793 -0.00255,-0.012149 z"
         id="path14339" />
      <path
         style="fill:#000000;fill-opacity:1;stroke-width:0.00612532"
         d="m 5.8149565,4.6055195 c -0.00787,0.00527 -0.014357,0.010798 -0.014415,0.012279 -5.76e-5,0.00148 0.00633,-0.00162 0.014205,-0.00689 0.00787,-0.00527 0.014357,-0.010798 0.014415,-0.012279 5.76e-5,-0.00148 -0.00633,0.00162 -0.014205,0.00689 z M 5.687465,1.1210072 c -0.010787,-0.00682 -0.011041,-0.00664 -0.00271,0.002 0.00506,0.00524 0.010377,0.00954 0.011823,0.00956 0.00573,6.51e-5 0.00222,-0.0044 -0.00911,-0.011564 z M 5.4491865,1.8273121 c -0.00787,0.00527 -0.014357,0.010798 -0.014415,0.012279 -5.76e-5,0.00148 0.00633,-0.00162 0.014205,-0.00689 0.00787,-0.00527 0.014357,-0.010798 0.014415,-0.012279 5.76e-5,-0.00148 -0.00633,0.00162 -0.014205,0.00689 z m -0.036863,0.2759941 c -0.00335,0.057186 -0.00693,0.1492551 -0.00796,0.2045968 -0.00102,0.055342 0.00172,0.00855 0.0061,-0.1039755 0.00438,-0.1125282 0.00521,-0.1578078 0.00186,-0.1006213 z M 5.1371723,4.1601636 c -0.00882,0.2006145 -0.02159,0.5289115 -0.028384,0.729549 -0.00679,0.2006375 4.203e-4,0.036498 0.016032,-0.3647536 0.015611,-0.401252 0.02117,-0.5654099 0.012353,-0.3647954 z m 0.020572,-0.8571422 c -0.00812,1.663e-4 -0.00982,0.00142 -0.00433,0.00321 0.00497,0.00161 0.010983,0.00149 0.013367,-2.731e-4 0.00238,-0.00176 -0.00168,-0.00308 -0.00903,-0.00293 z m -0.00446,-0.6158843 c -0.00208,0.00368 -0.00231,0.00974 -5.237e-4,0.01346 0.00179,0.00372 0.00349,7.13e-4 0.00378,-0.00669 2.88e-4,-0.0074 -0.00118,-0.01045 -0.00325,-0.00677 z m -0.018906,0.306816 c -0.00208,0.00368 -0.00231,0.00974 -5.237e-4,0.01346 0.00179,0.00372 0.00349,7.13e-4 0.00378,-0.00669 2.88e-4,-0.0074 -0.00118,-0.01045 -0.00325,-0.00677 z m -0.068458,0.4900537 c -0.010787,-0.00682 -0.011041,-0.00664 -0.00271,0.002 0.00875,0.00907 0.01436,0.011989 0.014532,0.00756 4.35e-5,-0.00112 -0.00528,-0.00542 -0.011823,-0.00956 z"
         id="path14337" />
      <path
         style="fill:#000000;fill-opacity:1;stroke-width:0.00612532"
         d="M 7.2597726,3.5961545 C 7.0622432,3.4935547 6.9146656,3.4195189 6.9075179,3.4194377 c -0.00384,-4.37e-5 -0.03468,0.027017 -0.068523,0.060135 -0.1967883,0.192573 -0.4184536,0.3326353 -0.6620158,0.4183038 -0.08817,0.031012 -0.1853326,0.055711 -0.2661504,0.067657 -0.081897,0.012105 -0.092749,0.010657 -0.1176497,-0.015701 -0.011831,-0.012523 -0.021391,-0.028994 -0.021245,-0.0366 1.461e-4,-0.00761 -0.0017,-0.074451 -0.0041,-0.148543 -0.00376,-0.1160785 -0.00296,-0.1358725 0.00584,-0.1431002 0.00561,-0.00461 0.010324,-0.011399 0.010467,-0.015079 1.432e-4,-0.00368 0.0051,-0.010272 0.011023,-0.014648 0.016329,-0.012074 0.017353,-0.085331 0.0017,-0.1215522 C 5.762572,3.3909641 5.754179,3.3208245 5.754404,3.1154627 5.7545874,2.948352 5.749624,2.8646712 5.731388,2.7277152 5.726868,2.6937822 5.723678,2.6525392 5.724298,2.6360642 5.725898,2.5935452 5.715758,2.5663002 5.69556,2.5588552 L 5.678801,2.5526752 5.68975,2.2712574 C 5.69942,2.0226019 5.702012,1.9888691 5.711974,1.9815032 c 0.0062,-0.00459 0.014598,-0.0083 0.01866,-0.00825 0.012384,1.407e-4 0.00271,-0.043041 -0.012593,-0.056231 C 5.704095,1.9050042 5.704099,1.9024692 5.7186886,1.5274766 L 5.7333736,1.1500272 5.7092819,1.138021 C 5.6755079,1.12119 5.6655589,1.101947 5.6673139,1.05685 5.6686139,1.02347 5.6667075,1.016957 5.6522169,1.005239 5.6391949,0.9947086 5.6284209,0.9917471 5.6020399,0.9914473 c -0.046308,-5.2624e-4 -0.064977,0.0100819 -0.066044,0.0375279 -0.00171,0.044036 -0.034189,0.069063 -0.08881,0.068442 -0.024573,-2.792e-4 -0.036879,0.00224 -0.043553,0.00893 -0.00809,0.0081 -0.020825,0.00909 -0.097534,0.00754 -0.053848,-0.00109 -0.091144,-0.00413 -0.095705,-0.00782 -0.00801,-0.00648 -0.05207,-0.00866 -0.070416,-0.00349 -0.00918,0.00259 -0.011531,0.013053 -0.013327,0.059233 l -0.00218,0.056091 0.018928,0.00604 c 0.013668,0.00436 0.027342,0.00446 0.049204,3.561e-4 0.03013,-0.00566 0.03089,-0.00543 0.1588597,0.047017 0.082628,0.033867 0.1365278,0.052793 0.1508098,0.052955 l 0.022225,2.526e-4 -0.00747,0.1920414 c -0.011289,0.2901584 -0.013534,0.2951969 -0.1615541,0.3625818 -0.06288,0.028625 -0.094754,0.053166 -0.106182,0.08175 -0.00514,0.012859 -0.011861,0.1166141 -0.018404,0.2841456 l -0.010309,0.263891 -0.015879,0.00514 c -0.010776,0.00349 -0.017968,0.012037 -0.022381,0.026609 -0.00358,0.01181 -0.0098,0.028706 -0.01384,0.037548 -0.011676,0.025578 -0.050546,0.6746098 -0.041142,0.6869512 0.00422,0.00554 0.00744,0.016165 0.00715,0.023608 -4.22e-4,0.010846 0.00293,0.013573 0.016887,0.013731 0.013931,1.583e-4 0.017309,0.00289 0.01689,0.013658 -4.556e-4,0.01171 -0.00359,0.013425 -0.024131,0.013192 -0.044236,-5.027e-4 -0.063194,0.023498 -0.051657,0.065398 0.00262,0.0095 0.00129,0.014827 -0.00369,0.014771 -0.00428,-4.86e-5 -0.0081,0.00809 -0.00849,0.018097 -3.891e-4,0.010002 -0.00553,0.021148 -0.011417,0.024769 -0.014025,0.00862 -0.014058,0.020845 -8.79e-5,0.033351 0.00947,0.00848 0.010724,0.022303 0.00785,0.086697 -0.00254,0.056839 -9.733e-4,0.080543 0.00607,0.091858 0.00894,0.014361 0.00843,0.015869 -0.00874,0.025878 -0.022917,0.013358 -0.023365,0.022322 -0.0018,0.036003 0.025359,0.016088 0.022542,0.045177 -0.00582,0.060148 -0.013698,0.00723 -0.021526,0.015954 -0.021853,0.024358 -4.778e-4,0.012282 0.00187,0.013121 0.037801,0.013529 l 0.03831,4.354e-4 0.00147,-0.037689 c 8.379e-4,-0.021537 0.00445,-0.037655 0.00843,-0.03761 0.00383,4.35e-5 0.0067,0.00688 0.00638,0.015202 -3.237e-4,0.00832 0.00383,0.019879 0.00923,0.025691 0.00852,0.00917 0.00606,0.1080092 -0.018613,0.7470638 -0.027756,0.7189607 -0.028129,0.7369755 -0.015662,0.7566262 0.00702,0.011071 0.019746,0.02664 0.02827,0.034596 0.020981,0.019584 0.072789,0.048482 0.087211,0.048646 0.00644,7.32e-5 0.021563,0.012573 0.033602,0.027776 0.024739,0.031242 0.064358,0.056685 0.1030348,0.066167 0.030784,0.00755 0.036431,0.017573 0.048291,0.085732 0.00692,0.039772 0.00659,0.046805 -0.00255,0.05426 -0.016623,0.013558 -0.013732,0.037894 0.018874,0.1588735 0.024885,0.092333 0.030873,0.1260299 0.032155,0.1809361 0.00147,0.063086 1.937e-4,0.070749 -0.01967,0.1178902 -0.038268,0.090817 -0.035885,0.1117366 0.090668,0.7958067 0.031855,0.1721916 0.059414,0.3171346 0.061241,0.3220953 0.0078,0.021169 0.030504,0.03715 0.053151,0.037407 0.012437,1.413e-4 0.1107286,-0.013334 0.2184263,-0.029946 0.2635425,-0.040649 0.4338526,-0.063247 0.560291,-0.07434 0.1177807,-0.010334 0.1471725,-0.017288 0.1745914,-0.041305 0.036524,-0.031994 0.030765,-0.054598 -0.047506,-0.186446 C 6.3608297,6.5702028 6.0040485,5.915901 5.9210792,5.7351986 5.8606923,5.6036794 5.8336568,5.561837 5.808884,5.5615554 5.802454,5.5614823 5.767671,5.4534514 5.768628,5.4365152 c 1.073e-4,-0.00186 0.00971,-0.00629 0.021348,-0.00984 0.011636,-0.00355 0.021234,-0.00843 0.021328,-0.010854 9.42e-5,-0.00242 0.015124,-0.00587 0.033399,-0.00767 0.018275,-0.0018 0.057008,-0.00998 0.086072,-0.01818 0.092129,-0.025988 0.1397584,-0.018687 0.3529812,0.054107 0.1894174,0.064666 0.2347206,0.077963 0.2668765,0.078328 0.062104,7.057e-4 0.1276737,-0.036961 0.164083,-0.094257 0.024107,-0.037936 0.040296,-0.1230272 0.029722,-0.156222 C 6.7353588,5.243421 6.7189066,5.23593 6.6325309,5.2209713 6.5508003,5.2068171 6.5267686,5.1998787 6.3309766,5.1339076 6.1417645,5.0701536 6.0792878,5.0469111 6.0539944,5.0308652 l -0.018434,-0.011695 0.01788,-0.015662 c 0.035192,-0.030827 0.039699,-0.062526 0.033552,-0.2359959 -0.00406,-0.1144476 -0.012103,-0.1463781 -0.044929,-0.1782695 -0.026139,-0.025395 -0.030156,-0.043431 -0.00962,-0.043197 0.00719,8.18e-5 0.01697,-0.00331 0.021727,-0.00753 0.00638,-0.00566 0.017633,-0.00675 0.042826,-0.00415 0.023686,0.00245 0.034251,0.00161 0.034421,-0.00274 2.77e-4,-0.00712 -0.021988,-0.014854 -0.066678,-0.023159 -0.016876,-0.00314 -0.03891,-0.010545 -0.048966,-0.016463 -0.010513,-0.00619 -0.035984,-0.012503 -0.059934,-0.01486 -0.045871,-0.00451 -0.05168,-0.00823 -0.050891,-0.032561 5.254e-4,-0.016189 0.00161,-0.016695 0.054896,-0.025604 0.4730519,-0.079096 0.921313,-0.2912191 1.2469497,-0.5900735 0.059221,-0.05435 0.1643663,-0.164719 0.163855,-0.171995 -1.269e-4,-0.00181 -0.050021,-0.029149 -0.110875,-0.060758 z M 6.0336265,4.9723473 c -0.010186,0.014279 -0.013826,0.015673 -0.030064,0.01151 -0.010161,-0.0026 -0.060039,-0.00439 -0.1108385,-0.00396 -0.054277,4.568e-4 -0.092283,-0.0013 -0.092168,-0.00425 1.077e-4,-0.00277 0.00666,-0.00936 0.014568,-0.014658 0.0079,-0.0053 0.01831,-0.018822 0.023124,-0.030059 0.00794,-0.018527 0.013958,-0.022234 0.064618,-0.039787 0.060087,-0.020819 0.09144,-0.042417 0.1056553,-0.072783 0.014386,-0.030731 0.00185,-0.034315 -0.019596,-0.0056 -0.02673,0.035778 -0.057334,0.049953 -0.1065865,0.049368 -0.025927,-3.054e-4 -0.046111,-0.00395 -0.060151,-0.010854 l -0.021131,-0.010391 -0.00202,-0.066109 c -0.00111,-0.03636 -0.00122,-0.086738 -2.415e-4,-0.1119509 0.00253,-0.064902 0.00359,-0.065522 0.1100442,-0.064313 0.097054,0.0011 0.1078731,0.00463 0.123933,0.040452 0.011828,0.02638 0.017619,0.120892 0.014548,0.2374481 -0.00166,0.063076 -0.00452,0.083082 -0.013689,0.095941 z M 5.672078,1.7630803 C 5.666948,1.7596503 5.657594,1.7582903 5.65129,1.7600703 5.640806,1.7630303 5.640659,1.7419453 5.64957,1.5129838 l 0.00974,-0.2503187 0.017507,-0.0085 c 0.00963,-0.00468 0.019184,-0.00848 0.021235,-0.00846 0.00205,2.33e-5 -8.557e-4,0.1178476 -0.00646,0.2618317 C 5.682982,1.7288891 5.679966,1.7683616 5.67208,1.7630812 Z M 5.63228,2.4946263 5.611384,2.4943888 5.620904,2.2495801 c 0.00842,-0.2163117 0.010737,-0.244431 0.01994,-0.2415636 0.00573,0.00178 0.015193,3.073e-4 0.021033,-0.00328 0.00937,-0.00576 0.00948,0.02262 9.564e-4,0.241801 l -0.00966,0.2483291 z M 5.4451525,2.4111514 c -0.029517,0.00669 -0.034664,0.00666 -0.039955,-1.885e-4 -0.00339,-0.00439 -0.00267,-0.09655 0.00163,-0.2085924 0.00863,-0.2247973 0.00421,-0.2099104 0.060216,-0.2027492 l 0.031202,0.00399 -0.00961,0.1999327 -0.00961,0.1999329 -0.033881,0.00768 z m 0.00202,0.1396015 -0.026185,0.00137 -0.00193,0.049628 c -0.00167,0.042965 -1.087e-4,0.050887 0.011641,0.059006 0.012308,0.0085 0.013313,0.016041 0.010789,0.08092 -0.00252,0.064879 -0.00411,0.072386 -0.017073,0.080604 -0.013248,0.0084 -0.014549,0.015725 -0.017845,0.1004349 -0.00333,0.085522 -0.00266,0.09205 0.010485,0.101939 0.013219,0.00995 0.013722,0.015334 0.00861,0.092198 -0.00531,0.079846 -0.00582,0.08185 -0.023241,0.091592 -0.021345,0.011938 -0.02397,0.010042 -0.033308,-0.024061 -0.01008,-0.036816 -0.0061,-0.1083364 0.00841,-0.1509919 0.015988,-0.04701 0.018946,-0.131845 0.00633,-0.1816902 -0.013234,-0.052308 -0.00979,-0.1420969 0.00716,-0.1865403 0.00812,-0.021292 0.013764,-0.054872 0.015132,-0.090052 l 0.00218,-0.056098 0.03529,4.01e-4 c 0.034389,3.908e-4 0.035219,7.784e-4 0.03251,0.015182 -0.00241,0.012833 -0.00623,0.014962 -0.028966,0.016156 z m 0.01949,-1.2591996 c -0.00185,-2.11e-5 -0.026577,-0.00932 -0.054945,-0.020658 l -0.051577,-0.02062 0.00181,-0.04655 c 0.00225,-0.057834 0.015625,-0.074779 0.058639,-0.07429 0.020711,2.354e-4 0.030026,0.00359 0.040735,0.014656 0.012346,0.012761 0.013598,0.021726 0.011294,0.080926 -0.00142,0.036617 -0.00411,0.066558 -0.00596,0.066537 z"
         id="path14335" />
    </g>
    <text
       xml:space="preserve"
       style="font-style:normal;font-variant:normal;font-weight:normal;font-stretch:normal;font-size:7.95593px;line-height:1.25;font-family:GungsuhChe;-inkscape-font-specification:'GungsuhChe, Normal';font-variant-ligatures:normal;font-variant-caps:normal;font-variant-numeric:normal;font-variant-east-asian:normal;fill:#000000;fill-opacity:1;stroke:none;stroke-width:0.198899"
       x="-0.16359495"
       y="5.8529968"
       id="text22673"
       transform="scale(0.7133481,1.4018401)"><tspan
         sodipodi:role="line"
         id="tspan22671"
         style="font-style:normal;font-variant:normal;font-weight:normal;font-stretch:normal;font-size:7.95593px;font-family:GungsuhChe;-inkscape-font-specification:'GungsuhChe, Normal';font-variant-ligatures:normal;font-variant-caps:normal;font-variant-numeric:normal;font-variant-east-asian:normal;stroke-width:0.198899"
         x="-0.16359495"
         y="5.8529968">S1</tspan></text>
    <text
       xml:space="preserve"
       transform="scale(0.26458333)"
       id="text28267"
       style="fill:black;fill-opacity:1;line-height:1.25;stroke:none;font-family:sans-serif;font-style:normal;font-weight:normal;font-size:40px;white-space:pre;shape-inside:url(#rect28269)" />
  </g>
</svg>
